<?xml version="1.0" standalone="no"?>
<!DOCTYPE svg PUBLIC "-//W3C//DTD SVG 20010904//EN"
 "http://www.w3.org/TR/2001/REC-SVG-20010904/DTD/svg10.dtd">
<svg version="1.0" xmlns="http://www.w3.org/2000/svg"
 width="307.000000pt" height="485.000000pt" viewBox="0 0 307.000000 485.000000"
 preserveAspectRatio="xMidYMid meet">

<g transform="translate(0.000000,485.000000) scale(0.100000,-0.100000)"
fill="#000000" stroke="none">
<path d="M1443 4786 c-154 -175 -280 -433 -343 -699 l-18 -78 39 -47 c69 -82
179 -254 224 -347 75 -155 128 -331 160 -527 6 -37 5 -38 -27 -38 l-33 0 -28
137 c-84 413 -283 738 -577 944 -90 63 -142 92 -245 134 -81 34 -274 90 -281
82 -2 -2 -9 -39 -15 -83 -15 -103 -15 -387 0 -489 41 -279 129 -526 256 -716
l54 -81 -286 -294 c-158 -161 -291 -303 -295 -315 -5 -12 -7 -537 -6 -1166 l3
-1145 28 -24 28 -24 1160 2 1159 3 320 320 c175 175 324 331 330 345 7 17 9
388 8 1172 l-3 1147 -23 23 c-22 23 -26 23 -312 26 l-289 3 35 62 c196 343
273 767 213 1171 l-12 77 -56 -7 c-210 -25 -440 -136 -594 -286 l-65 -63 13
-90 c35 -233 10 -568 -61 -812 -14 -48 -18 -53 -45 -53 -16 0 -29 2 -29 4 0 3
13 56 29 118 92 355 79 731 -36 1083 -56 174 -183 401 -296 529 l-43 49 -41
-47z m73 -2048 c-4 -79 -9 -165 -12 -193 l-5 -50 36 40 c41 45 156 217 197
294 24 44 32 51 58 51 16 0 30 -3 30 -7 0 -29 -138 -248 -209 -332 l-46 -54
60 7 c215 26 440 143 615 320 l64 66 266 0 265 0 -256 -255 -256 -255 -1032 0
c-567 0 -1031 3 -1031 8 0 7 369 375 437 436 l32 29 58 -52 c76 -69 188 -143
288 -191 85 -40 248 -95 313 -106 49 -8 48 -11 64 214 l12 172 29 0 30 0 -7
-142z m1127 -2240 c-136 -137 -251 -248 -255 -248 -5 0 -8 462 -8 1027 l0
1028 253 253 252 252 3 -1032 2 -1033 -247 -247z m-343 1547 l0 -244 -22 8
c-24 9 -30 17 -52 74 -18 46 -67 70 -171 87 -102 16 -361 14 -612 -5 -210 -17
-234 -17 -423 -1 -254 22 -531 22 -630 2 -82 -17 -136 -52 -146 -94 -7 -29
-31 -62 -46 -62 -4 0 -8 108 -8 240 l0 240 1055 0 1055 0 0 -245z m-1490 -105
c122 -11 215 -26 240 -41 9 -5 -145 -8 -360 -9 -250 0 -370 4 -360 10 61 40
272 58 480 40z m1163 0 c57 -6 115 -18 140 -29 l42 -19 -375 -1 c-373 -1 -424
5 -279 29 161 27 326 34 472 20z m-855 -122 l3 -28 -420 0 c-271 0 -422 4
-426 10 -3 6 -3 19 0 30 6 20 14 20 423 18 l417 -3 3 -27z m1075 10 c3 -12 4
-25 1 -30 -3 -4 -194 -8 -425 -8 l-419 0 0 23 c0 13 3 27 7 30 3 4 192 7 419
7 l412 0 5 -22z m-1077 -94 c-3 -9 -6 -20 -6 -25 0 -6 -165 -8 -417 -7 l-418
3 -3 23 -3 22 426 0 c385 0 427 -2 421 -16z m1084 -9 l0 -25 -419 0 -419 0 -4
25 -5 25 423 0 424 0 0 -25z m-906 -55 c10 -10 31 -48 46 -84 69 -163 181
-253 353 -286 239 -45 464 79 528 292 20 63 39 88 68 88 8 0 11 -226 11 -750
l0 -750 -1055 0 -1055 0 0 751 0 751 22 -14 c13 -9 29 -37 39 -69 22 -74 44
-114 92 -167 76 -81 170 -124 304 -137 211 -21 388 81 480 275 51 106 81 135
128 123 11 -3 28 -13 39 -23z m-204 -19 c0 -42 8 -41 -411 -41 l-399 0 0 25 0
25 405 0 c239 0 405 -4 405 -9z m1100 -16 l0 -25 -400 0 c-236 0 -400 4 -400
9 0 5 -3 16 -6 25 -6 14 34 16 400 16 l406 0 0 -25z m-1142 -90 l-11 -25 -363
0 c-380 0 -374 -1 -374 41 0 5 156 9 380 9 l380 0 -12 -25z m1122 16 c0 -42 6
-41 -375 -41 -381 0 -375 -1 -375 41 0 5 154 9 375 9 221 0 375 -4 375 -9z
m-1190 -116 l-23 -25 -282 0 -282 0 -23 25 -23 25 328 0 328 0 -23 -25z m1120
0 l-23 -25 -280 0 c-247 0 -283 2 -299 17 -10 9 -18 20 -18 25 0 4 145 8 322
8 l321 0 -23 -25z m-1260 -92 c-100 -46 -289 -40 -363 12 -19 14 0 15 198 14
l220 -1 -55 -25z m1166 18 c-15 -23 -125 -46 -221 -46 -87 1 -107 4 -155 27
l-55 26 218 1 c120 1 216 -3 213 -8z"/>
</g>
</svg>
